<?xml version="1.0" encoding="UTF-8"?>
<svg version="1.1" xmlns="http://www.w3.org/2000/svg" width="1088" height="289">
<path d="M0 0 C16.59154917 13.41764009 25.46105551 30.82259222 27.921875 51.88720703 C28.04516808 53.49001713 28.1498843 55.09438379 28.234375 56.69970703 C28.275625 57.46283203 28.316875 58.22595703 28.359375 59.01220703 C28.94800178 81.38002481 21.58900583 102.32475227 6.234375 118.69970703 C-7.53441094 131.76761881 -24.53064719 137.1440168 -43.2109375 136.90673828 C-61.33905449 135.85092487 -76.02753827 128.43779376 -88.765625 115.69970703 C-89.095625 144.40970703 -89.425625 173.11970703 -89.765625 202.69970703 C-99.665625 202.69970703 -109.565625 202.69970703 -119.765625 202.69970703 C-119.765625 132.40970703 -119.765625 62.11970703 -119.765625 -10.30029297 C-109.865625 -10.30029297 -99.965625 -10.30029297 -89.765625 -10.30029297 C-89.435625 -4.03029297 -89.105625 2.23970703 -88.765625 8.69970703 C-87.734375 7.54470703 -86.703125 6.38970703 -85.640625 5.19970703 C-63.31507491 -17.04695419 -24.99112681 -18.40469322 0 0 Z M-78.515625 28.44970703 C-85.4827374 36.90399888 -88.90725381 46.84744265 -89.765625 57.69970703 C-89.81976563 58.35326172 -89.87390625 59.00681641 -89.9296875 59.68017578 C-90.50785644 73.68763236 -86.13891751 87.69438149 -76.58203125 98.07470703 C-66.42088224 107.16511131 -55.88697344 110.35861037 -42.44921875 110.04736328 C-30.26935947 108.89783255 -20.26779663 102.34545155 -12.55078125 93.09423828 C-3.90787524 81.50101862 -1.79890585 67.31078817 -3.1953125 53.16845703 C-5.06488958 41.79733067 -10.37719992 30.66334677 -19.4140625 23.30126953 C-38.45053884 10.33622751 -62.31535211 11.13217395 -78.515625 28.44970703 Z " fill="#0097F6" transform="translate(471.765625,86.30029296875)"/>
<path d="M0 0 C3.19362876 2.5148118 6.30035022 5.03081897 9.17578125 7.90625 C9.50578125 1.96625 9.83578125 -3.97375 10.17578125 -10.09375 C20.40578125 -10.09375 30.63578125 -10.09375 41.17578125 -10.09375 C41.17578125 37.42625 41.17578125 84.94625 41.17578125 133.90625 C30.94578125 133.90625 20.71578125 133.90625 10.17578125 133.90625 C9.68078125 124.99625 9.68078125 124.99625 9.17578125 115.90625 C8.24765625 116.916875 7.31953125 117.9275 6.36328125 118.96875 C-5.95259007 131.21042932 -22.06268714 136.71780042 -39.13671875 137.21875 C-57.29281513 136.80807639 -73.3729893 130.71357034 -86.203125 117.765625 C-103.64786783 98.73499645 -107.74940034 77.0749637 -107.01220703 51.97705078 C-106.60348026 45.30047248 -104.98109008 39.22759953 -102.82421875 32.90625 C-102.37369141 31.50052734 -102.37369141 31.50052734 -101.9140625 30.06640625 C-99.61168925 23.59783378 -96.03941299 18.28859962 -91.82421875 12.90625 C-91.17710937 12.06964844 -90.53 11.23304687 -89.86328125 10.37109375 C-68.1988419 -15.68260934 -27.04898469 -20.05291257 0 0 Z M-67.0703125 31.62890625 C-75.33897397 42.36527515 -76.81625229 55.72047086 -75.82421875 68.90625 C-74.12791522 81.41648857 -68.87863013 93.66629393 -58.69140625 101.55859375 C-47.65093015 109.21207633 -36.44986035 111.66477133 -23.0390625 109.4453125 C-11.51979914 106.34186595 -2.66466903 99.58290161 3.67578125 89.52734375 C10.47461674 76.92116962 12.43812045 61.96860038 8.98828125 48.03125 C5.11927143 36.10328885 -1.52832231 25.06883326 -12.83203125 18.8671875 C-13.48945313 18.55007812 -14.146875 18.23296875 -14.82421875 17.90625 C-15.74847656 17.43058594 -15.74847656 17.43058594 -16.69140625 16.9453125 C-35.35502695 9.02961345 -54.74407982 17.13171282 -67.0703125 31.62890625 Z " fill="#0097F6" transform="translate(272.82421875,86.09375)"/>
<path d="M0 0 C3.52660006 2.85768366 6.73625701 5.83368217 10 9 C10.33 3.06 10.66 -2.88 11 -9 C21.23 -9 31.46 -9 42 -9 C42 38.52 42 86.04 42 135 C31.77 135 21.54 135 11 135 C10.505 126.09 10.505 126.09 10 117 C6.73137966 120.25527451 6.73137966 120.25527451 3.5078125 123.5546875 C-8.20300754 134.73620494 -25.82835965 138.41913558 -41.453125 138.203125 C-61.57383861 137.05083744 -76.31348192 128.52855978 -89.7890625 114.08203125 C-104.65587313 96.074905 -107.9308561 72.25887047 -105.78173828 49.70996094 C-103.38536086 31.92875622 -94.56941729 14.68093852 -80.7265625 3.09765625 C-56.93764682 -14.49382347 -24.82992026 -16.70435314 0 0 Z M-66.2109375 32.515625 C-74.19916599 43.60844884 -76.75807325 57.56970642 -74.6953125 70.98095703 C-72.17186854 84.52193754 -66.84206636 95.17992672 -56 104 C-52.77964793 106.01887515 -49.52456824 107.58779926 -46 109 C-44.9275 109.433125 -43.855 109.86625 -42.75 110.3125 C-29.83532518 112.68019038 -18.4139053 110.83561655 -7.3828125 103.78125 C1.77586169 96.93476569 8.76791655 86.08224896 10.75 74.7265625 C12.32386339 57.56161494 10.33366127 42.69846782 -0.7421875 28.81640625 C-7.456493 21.44738631 -16.73010904 16.40132565 -26.72265625 15.76171875 C-42.93230572 15.34637455 -55.50903765 19.80978374 -66.2109375 32.515625 Z " fill="#0097F6" transform="translate(721,85)"/>
<path d="M0 0 C10.7273375 8.99549461 16.5088204 21.66867878 18.8125 35.3125 C19.06557914 38.6561034 19.06681478 41.97845452 19.03955078 45.33032227 C19.03984283 46.28748642 19.04013489 47.24465057 19.04043579 48.2308197 C19.0390534 51.36361063 19.02354389 54.49615738 19.0078125 57.62890625 C19.00407849 59.81322601 19.00123335 61.99754746 18.99923706 64.18186951 C18.99163117 69.90781343 18.97200897 75.63365456 18.9498291 81.35955811 C18.92930491 87.21169647 18.92022132 93.06385158 18.91015625 98.91601562 C18.88876007 110.38156266 18.85360289 121.84700666 18.8125 133.3125 C8.9125 133.3125 -0.9875 133.3125 -11.1875 133.3125 C-11.20208252 130.63850098 -11.21666504 127.96450195 -11.23168945 125.20947266 C-11.28215435 116.34853143 -11.34877026 107.48776374 -11.42321491 98.62699318 C-11.46783429 93.25769188 -11.50710892 87.88846499 -11.53393555 82.51904297 C-11.56005273 77.3317575 -11.60051437 72.14475965 -11.65068626 66.95765305 C-11.6672982 64.98428312 -11.67884765 63.01086352 -11.68511391 61.03743362 C-11.73374584 47.12263458 -11.86972639 34.50246982 -21.71484375 23.625 C-29.53661832 16.26332981 -38.09468699 14.71256501 -48.4987793 14.84204102 C-57.88225344 15.21023216 -65.58517095 17.66415985 -72.46875 24.265625 C-79.70916987 32.88830685 -81.47648489 43.48425234 -81.50634766 54.41235352 C-81.51639328 55.27198196 -81.5264389 56.13161041 -81.53678894 57.01728821 C-81.56738878 59.82532148 -81.58459087 62.63326046 -81.6015625 65.44140625 C-81.62029286 67.40153298 -81.63986764 69.36165181 -81.6602478 71.32176208 C-81.71137773 76.45577312 -81.75110544 81.58981024 -81.78839111 86.72393799 C-81.82855129 91.97292431 -81.8795886 97.22180392 -81.9296875 102.47070312 C-82.02622 112.75123424 -82.10969027 123.03181012 -82.1875 133.3125 C-92.0875 133.3125 -101.9875 133.3125 -112.1875 133.3125 C-112.1875 85.7925 -112.1875 38.2725 -112.1875 -10.6875 C-102.2875 -10.6875 -92.3875 -10.6875 -82.1875 -10.6875 C-81.6925 -3.7575 -81.6925 -3.7575 -81.1875 3.3125 C-80.115 2.28125 -79.0425 1.25 -77.9375 0.1875 C-56.13830995 -18.73833459 -22.3206869 -16.65672882 0 0 Z " fill="#52BCFF" transform="translate(982.1875,86.6875)"/>
<path d="M0 0 C9.61782937 8.62840063 15.16703581 19.49116293 18 32 C13.41055653 32.24822252 8.82505014 32.42906459 4.23046875 32.54931641 C2.67020619 32.59944922 1.11040997 32.66758435 -0.44824219 32.75439453 C-5.4567273 33.02624717 -10.08793204 33.11319182 -15 32 C-17.48763484 29.65481465 -18.62383594 27.68911244 -19.9206543 24.54394531 C-22.47241585 18.52961475 -28.18847994 15.06310908 -34 12.5625 C-43.91335272 9.36375475 -56.51870628 9.46398538 -66 14 C-76.90927313 20.47492829 -82.3346968 29.60929442 -85.75390625 41.65625 C-89.00998163 56.77536925 -88.09140664 75.15765279 -80.42578125 88.79296875 C-74.7957292 97.50798082 -67.75327964 103.00699395 -57.5078125 105.640625 C-46.7177991 107.18685745 -35.70479458 106.30455747 -26.359375 100.3046875 C-20.25723248 95.31386232 -18.89136583 91.78273165 -15 84 C-4.11 84 6.78 84 18 84 C15.55355577 98.67866536 5.98368978 112.29042547 -6 121 C-24.9043474 132.95930514 -46.48577166 135.76106599 -68.2109375 130.96875 C-84.53004 126.79644338 -99.27561154 116.50512893 -108.28808594 102.11791992 C-119.39713163 83.21718656 -122.04978232 59.6279272 -117.8125 38.25 C-113.26763423 20.75014302 -104.08831452 4.65037863 -88.71875 -5.40625 C-60.79072512 -21.77785079 -25.4754991 -20.23336378 0 0 Z " fill="#0097F6" transform="translate(129,90)"/>
<path d="M0 0 C10.23 0 20.46 0 31 0 C31 11.55 31 23.1 31 35 C42.22 35 53.44 35 65 35 C65 43.25 65 51.5 65 60 C53.78 60 42.56 60 31 60 C31.0629145 71.12682881 31.13832135 82.25338047 31.23571491 93.37996197 C31.28043956 98.546505 31.31969115 103.7129688 31.34643555 108.87963867 C31.3724475 113.86591052 31.41283516 118.85187779 31.46318626 123.8379612 C31.47986921 125.74010237 31.49137459 127.64229625 31.49761391 129.54450035 C31.50723943 132.20927219 31.53528001 134.8732623 31.56762695 137.5378418 C31.56619186 138.32402893 31.56475677 139.11021606 31.5632782 139.92022705 C31.64083259 144.43865795 32.16751902 147.42296839 35 151 C40.5532872 153.92940393 47.23333281 153.45075074 53.375 153.625 C57.21125 153.74875 61.0475 153.8725 65 154 C65 162.25 65 170.5 65 179 C60.25248125 179.09273504 55.50820716 179.17208272 50.76049805 179.21972656 C49.15166474 179.23962238 47.54290158 179.26674929 45.93432617 179.30175781 C32.37093898 179.58917144 19.38660734 178.84536974 9 169 C1.42691758 161.21655418 -0.15891459 151.56821418 -0.11352539 141.1706543 C-0.11367142 140.29210281 -0.11381744 139.41355133 -0.1139679 138.50837708 C-0.11327299 135.61363224 -0.10550036 132.7189523 -0.09765625 129.82421875 C-0.09579057 127.81354304 -0.09436737 125.80286688 -0.09336853 123.79219055 C-0.08955517 118.50681294 -0.07973495 113.22146292 -0.06866455 107.93609619 C-0.05842505 102.54008355 -0.05386547 97.14406644 -0.04882812 91.74804688 C-0.03811163 81.16535053 -0.02052437 70.58268188 0 60 C-5.61 60 -11.22 60 -17 60 C-17 51.75 -17 43.5 -17 35 C-11.39 35 -5.78 35 0 35 C0 23.45 0 11.9 0 0 Z " fill="#52BCFF" transform="translate(533,41)"/>
<path d="M0 0 C3.19362876 2.5148118 6.30035022 5.03081897 9.17578125 7.90625 C9.50578125 1.96625 9.83578125 -3.97375 10.17578125 -10.09375 C20.40578125 -10.09375 30.63578125 -10.09375 41.17578125 -10.09375 C41.17578125 13.66625 41.17578125 37.42625 41.17578125 61.90625 C30.94578125 61.90625 20.71578125 61.90625 10.17578125 61.90625 C9.61890625 58.07 9.61890625 58.07 9.05078125 54.15625 C6.91606547 41.35530373 1.55474581 30.5264616 -8.796875 22.34765625 C-10.75497956 21.03576513 -12.7097186 19.94516626 -14.82421875 18.90625 C-15.75041016 18.42865234 -15.75041016 18.42865234 -16.6953125 17.94140625 C-25.84769994 14.06992852 -38.6359819 14.42250195 -47.94921875 17.53125 C-57.92153866 21.89223394 -66.41457082 29.6772751 -70.984375 39.640625 C-73.68249198 46.91926615 -74.86308176 54.21715406 -75.82421875 61.90625 C-86.05421875 61.90625 -96.28421875 61.90625 -106.82421875 61.90625 C-106.82421875 43.43725052 -103.3138769 27.57730752 -91.82421875 12.90625 C-91.17710937 12.06964844 -90.53 11.23304687 -89.86328125 10.37109375 C-68.1988419 -15.68260934 -27.04898469 -20.05291257 0 0 Z " fill="#52BCFF" transform="translate(272.82421875,86.09375)"/>
<path d="M0 0 C3.52660006 2.85768366 6.73625701 5.83368217 10 9 C10.33 3.06 10.66 -2.88 11 -9 C21.23 -9 31.46 -9 42 -9 C42 14.76 42 38.52 42 63 C31.77 63 21.54 63 11 63 C10.01 56.07 10.01 56.07 9 49 C4.86919942 37.29606502 -1.10980036 26.83322221 -12.37109375 20.7109375 C-22.66139033 16.01356073 -35.1625106 14.92026958 -46 18.625 C-57.53436569 23.62322513 -65.94549016 31.04775423 -70.93359375 42.703125 C-73.0765874 49.3283508 -73.95468052 56.12289818 -75 63 C-85.23 63 -95.46 63 -106 63 C-106 41.41620052 -100.00156132 23.02143371 -85.1484375 7.05859375 C-62.36937091 -14.76789369 -25.96461688 -17.46772139 0 0 Z " fill="#52BCFF" transform="translate(721,85)"/>
<path d="M0 0 C15.06764347 12.18525256 23.94385077 27.68778925 27.234375 46.69970703 C27.564375 51.64970703 27.894375 56.59970703 28.234375 61.69970703 C18.004375 61.69970703 7.774375 61.69970703 -2.765625 61.69970703 C-3.11625 59.34845703 -3.466875 56.99720703 -3.828125 54.57470703 C-5.68719362 43.85194367 -10.11257977 31.78938695 -18.765625 24.69970703 C-30.42645149 16.78467676 -40.92347305 14.37255919 -54.765625 15.69970703 C-66.92328082 18.28394305 -76.02651547 25.43788115 -82.765625 35.69970703 C-87.21327228 43.70004817 -88.25671199 52.79712029 -89.765625 61.69970703 C-99.665625 61.69970703 -109.565625 61.69970703 -119.765625 61.69970703 C-119.765625 37.93970703 -119.765625 14.17970703 -119.765625 -10.30029297 C-109.865625 -10.30029297 -99.965625 -10.30029297 -89.765625 -10.30029297 C-89.435625 -4.03029297 -89.105625 2.23970703 -88.765625 8.69970703 C-87.734375 7.54470703 -86.703125 6.38970703 -85.640625 5.19970703 C-63.31507491 -17.04695419 -24.99112681 -18.40469322 0 0 Z " fill="#52BCFF" transform="translate(471.765625,86.30029296875)"/>
<path d="M0 0 C9.61782937 8.62840063 15.16703581 19.49116293 18 32 C13.41055653 32.24822252 8.82505014 32.42906459 4.23046875 32.54931641 C2.67020619 32.59944922 1.11040997 32.66758435 -0.44824219 32.75439453 C-5.4567273 33.02624717 -10.08793204 33.11319182 -15 32 C-17.48763484 29.65481465 -18.62383594 27.68911244 -19.9206543 24.54394531 C-22.47241585 18.52961475 -28.18847994 15.06310908 -34 12.5625 C-43.91335272 9.36375475 -56.51870628 9.46398538 -66 14 C-75.90068109 19.87630353 -81.72163284 28.0256078 -85 39 C-86.32256869 45.29307346 -87.13487561 51.62539926 -88 58 C-98.23 58 -108.46 58 -119 58 C-119 36.60254664 -113.23018519 18.10389723 -98.40625 2.31640625 C-71.93175115 -23.1695967 -27.85779388 -22.12544985 0 0 Z " fill="#52BCFF" transform="translate(129,90)"/>
<path d="M0 0 C10.23 0 20.46 0 31 0 C31 47.52 31 95.04 31 144 C20.77 144 10.54 144 0 144 C0 96.48 0 48.96 0 0 Z " fill="#0097F6" transform="translate(801,76)"/>
<path d="M0 0 C10.23 0 20.46 0 31 0 C31.03738281 2.75730469 31.07476563 5.51460937 31.11328125 8.35546875 C31.15952457 11.03303857 31.21074799 13.71047015 31.26245117 16.38793945 C31.29565549 18.2452755 31.32370141 20.10271137 31.34643555 21.96020508 C31.38006442 24.63405798 31.43238374 27.30699993 31.48828125 29.98046875 C31.49467117 30.80773972 31.5010611 31.63501068 31.50764465 32.48735046 C31.6250348 37.11573537 31.98898929 40.25065368 35 44 C40.5532872 46.92940393 47.23333281 46.45075074 53.375 46.625 C57.21125 46.74875 61.0475 46.8725 65 47 C65 55.25 65 63.5 65 72 C60.25248125 72.09273504 55.50820716 72.17208272 50.76049805 72.21972656 C49.15166474 72.23962238 47.54290158 72.26674929 45.93432617 72.30175781 C32.37093898 72.58917144 19.38660734 71.84536974 9 62 C1.08965161 53.86991971 -0.15861169 43.90897374 -0.09765625 33.10546875 C-0.0962413 32.15811356 -0.09482635 31.21075836 -0.09336853 30.23469543 C-0.08778611 27.21893105 -0.07523682 24.20324182 -0.0625 21.1875 C-0.05748273 19.13867295 -0.05292022 17.08984473 -0.04882812 15.04101562 C-0.03867478 10.02729174 -0.01909588 5.01372967 0 0 Z " fill="#0097F6" transform="translate(533,148)"/>
<path d="M0 0 C10.23 0 20.46 0 31 0 C31 23.76 31 47.52 31 72 C20.77 72 10.54 72 0 72 C0 48.24 0 24.48 0 0 Z " fill="#52BCFF" transform="translate(801,76)"/>
<path d="M0 0 C9.9 0 19.8 0 30 0 C30 23.76 30 47.52 30 72 C20.1 72 10.2 72 0 72 C0 48.24 0 24.48 0 0 Z " fill="#0097F6" transform="translate(971,148)"/>
<path d="M0 0 C9.9 0 19.8 0 30 0 C30 23.76 30 47.52 30 72 C20.1 72 10.2 72 0 72 C0 48.24 0 24.48 0 0 Z " fill="#0098F7" transform="translate(870,148)"/>
<path d="M0 0 C4.18001446 4.18001446 5.95023027 8.51611918 6.03515625 14.4609375 C5.64552719 20.79003389 4.19054744 24.92638362 -0.4921875 29.4375 C-5.65639824 33.95939597 -9.66250094 34.29328062 -16.27734375 34.21484375 C-21.1904818 33.82714993 -23.99412234 31.84213014 -27.6875 28.75 C-31.92792494 23.7073325 -33.60286029 18.78278224 -33.34765625 12.26953125 C-32.5385767 6.98778723 -30.11181401 2.72316458 -26.1875 -0.875 C-17.36211544 -6.75858971 -8.41314817 -5.93869283 0 0 Z " fill="#52BCFF" transform="translate(830,24)"/>
<path d="M0 0 C3.63 0 7.26 0 11 0 C11.42152344 1.14339844 11.84304688 2.28679688 12.27734375 3.46484375 C12.83058521 4.95578259 13.38397847 6.44666511 13.9375 7.9375 C14.21529297 8.69224609 14.49308594 9.44699219 14.77929688 10.22460938 C15.91753451 13.88779139 15.91753451 13.88779139 18 17 C20.31 11.39 22.62 5.78 25 0 C28.3 0 31.6 0 35 0 C35 9.57 35 19.14 35 29 C32.69 29 30.38 29 28 29 C27.34 25.04 26.68 21.08 26 17 C24.35 20.96 22.7 24.92 21 29 C18.69 29 16.38 29 14 29 C12.35 24.71 10.7 20.42 9 16 C8.67 20.29 8.34 24.58 8 29 C5.36 29 2.72 29 0 29 C0 19.43 0 9.86 0 0 Z " fill="#0097F6" transform="translate(1047,43)"/>
<path d="M0 0 C6.93 0 13.86 0 21 0 C21 1.98 21 3.96 21 6 C20.67 6.33 20.34 6.66 20 7 C18.02 7 16.04 7 14 7 C14 14.26 14 21.52 14 29 C11.36 29 8.72 29 6 29 C6 21.74 6 14.48 6 7 C4.02 7 2.04 7 0 7 C0 4.69 0 2.38 0 0 Z " fill="#0097F6" transform="translate(1023,43)"/>
</svg>
